<svg xmlns="http://www.w3.org/2000/svg" xmlns:xlink="http://www.w3.org/1999/xlink" version="1.1" width="24" height="24"
	viewBox="0 0 1000 1000" xml:space="preserve">
	<g transform="matrix(23.1717 0 0 23.1717 500.0006 500.0006)" id="357370">
		<g style="">
			<g transform="matrix(1 0 0 1 -8.6502 0)" id="680580">
				<path
					style="stroke: none; stroke-width: 1; stroke-dasharray: none; stroke-linecap: butt; stroke-dashoffset: 0; stroke-linejoin: miter; stroke-miterlimit: 4; is-custom-font: none; font-file-url: none; fill: rgb(0,0,0); fill-rule: nonzero; opacity: 1;"
					vector-effect="non-scaling-stroke" transform=" translate(-12, -12)"
					d="M 1 3 h 22 v 18 H 1 V 3 Z m 2 2 v 14 h 18 V 5 H 3 Z m 12.5 4.5 a 1 1 0 1 1 0 2 a 1 1 0 0 1 0 -2 Z m 2.4 2.8 a 3 3 0 1 0 -4.8 0 a 3.994 3.994 0 0 0 -1.6 3.2 v 1 h 2 v -1 a 2 2 0 1 1 4 0 v 1 h 2 v -1 c 0 -1.309 -0.628 -2.47 -1.6 -3.2 Z M 5 9 h 4.5 v 2 H 5 V 9 Z m 0 4 h 4.5 v 2 H 5 v -2 Z"
					stroke-linecap="round" />
			</g>
			<g transform="matrix(1.6229 -0.2792 0.2792 1.6229 2.4541 0.0001)" id="321346">
				<path
					style="stroke: none; stroke-width: 1; stroke-dasharray: none; stroke-linecap: butt; stroke-dashoffset: 0; stroke-linejoin: miter; stroke-miterlimit: 4; is-custom-font: none; font-file-url: none; fill: rgb(0,0,0); fill-rule: nonzero; opacity: 1;"
					vector-effect="non-scaling-stroke" transform=" translate(-12, -12)"
					d="m 19.6 21 l -6.3 -6.3 q -0.75 0.6 -1.725 0.95 T 9.5 16 q -2.725 0 -4.612 -1.888 T 3 9.5 q 0 -2.725 1.888 -4.612 T 9.5 3 q 2.725 0 4.612 1.888 T 16 9.5 q 0 1.1 -0.35 2.075 T 14.7 13.3 l 6.3 6.3 l -1.4 1.4 Z M 9.5 14 q 1.875 0 3.188 -1.313 T 14 9.5 q 0 -1.875 -1.313 -3.188 T 9.5 5 Q 7.625 5 6.312 6.313 T 5 9.5 q 0 1.875 1.313 3.188 T 9.5 14 Z"
					stroke-linecap="round" />
			</g>
		</g>
	</g>
</svg>